<svg width="133" height="38" viewBox="0 0 133 38" fill="none" xmlns="http://www.w3.org/2000/svg">
<path d="M0.586648 37V0.636363H7.17401V17.3445H7.6179L21.8047 0.636363H29.848L15.7855 16.9538L29.9723 37H22.0533L11.2045 21.4105L7.17401 26.169V37H0.586648ZM46.747 37H34.4245V0.636363H46.9956C50.6059 0.636363 53.7072 1.36435 56.2995 2.82031C58.9037 4.26444 60.9042 6.34185 62.301 9.05256C63.6977 11.7633 64.3961 15.0066 64.3961 18.7827C64.3961 22.5705 63.6918 25.8258 62.2832 28.5483C60.8864 31.2708 58.8682 33.3601 56.2285 34.8161C53.6007 36.272 50.4402 37 46.747 37ZM41.0119 31.3004H46.4274C48.9605 31.3004 51.0734 30.8388 52.7662 29.9155C54.4589 28.9804 55.7314 27.5895 56.5836 25.7429C57.4359 23.8845 57.862 21.5644 57.862 18.7827C57.862 16.0009 57.4359 13.6927 56.5836 11.858C55.7314 10.0114 54.4707 8.63234 52.8017 7.72088C51.1445 6.79759 49.0848 6.33594 46.6227 6.33594H41.0119V31.3004ZM90.4171 10.6328C90.2514 9.08215 89.553 7.87476 88.3219 7.01065C87.1027 6.14654 85.5165 5.71449 83.5634 5.71449C82.1903 5.71449 81.0125 5.92164 80.03 6.33594C79.0475 6.75024 78.2959 7.3125 77.775 8.02273C77.2542 8.73295 76.9879 9.5438 76.976 10.4553C76.976 11.2128 77.1477 11.8698 77.4909 12.4261C77.8461 12.9825 78.3255 13.456 78.9292 13.8466C79.5328 14.2254 80.2016 14.545 80.9355 14.8054C81.6694 15.0658 82.4093 15.2848 83.155 15.4624L86.5641 16.3146C87.9372 16.6342 89.257 17.0663 90.5236 17.6108C91.802 18.1553 92.9443 18.8419 93.9505 19.6705C94.9685 20.4991 95.7734 21.4993 96.3652 22.6712C96.9571 23.843 97.253 25.2161 97.253 26.7905C97.253 28.9212 96.7085 30.7973 95.6195 32.419C94.5305 34.0289 92.9561 35.2895 90.8965 36.201C88.8487 37.1006 86.3688 37.5504 83.4569 37.5504C80.6278 37.5504 78.1716 37.1125 76.0882 36.2365C74.0167 35.3606 72.3951 34.0821 71.2232 32.4013C70.0632 30.7204 69.4358 28.6726 69.3411 26.2578H75.8219C75.9166 27.5244 76.3072 28.5779 76.9938 29.4183C77.6803 30.2588 78.574 30.8861 79.6749 31.3004C80.7876 31.7147 82.0305 31.9219 83.4036 31.9219C84.8359 31.9219 86.0906 31.7088 87.1678 31.2827C88.2568 30.8447 89.1091 30.241 89.7246 29.4716C90.3401 28.6903 90.6538 27.7789 90.6657 26.7372C90.6538 25.7902 90.3757 25.009 89.8311 24.3935C89.2866 23.7661 88.5231 23.2453 87.5407 22.831C86.57 22.4048 85.4337 22.026 84.1316 21.6946L79.9945 20.6293C76.9997 19.8598 74.6323 18.6939 72.8922 17.1314C71.164 15.5571 70.2999 13.4678 70.2999 10.8636C70.2999 8.72112 70.8799 6.84493 72.04 5.23508C73.2118 3.62524 74.8039 2.37642 76.8162 1.48863C78.8285 0.589014 81.1072 0.139203 83.6522 0.139203C86.2327 0.139203 88.4935 0.589014 90.4348 1.48863C92.388 2.37642 93.9209 3.6134 95.0336 5.19957C96.1462 6.77391 96.7203 8.58499 96.7559 10.6328H90.4171ZM108.63 0.636363L116.638 13.9531H116.922L124.965 0.636363H132.476L121.272 18.8182L132.653 37H125.018L116.922 23.772H116.638L108.541 37H100.942L112.43 18.8182L101.084 0.636363H108.63Z" fill="#5F8EF1"/>
</svg>
